<?xml version="1.0" encoding="utf-8"?>
<!-- Generator: Adobe Illustrator 16.0.4, SVG Export Plug-In . SVG Version: 6.00 Build 0)  -->
<!DOCTYPE svg PUBLIC "-//W3C//DTD SVG 1.1//EN" "http://www.w3.org/Graphics/SVG/1.1/DTD/svg11.dtd">
<svg version="1.1" id="Layer_1" xmlns="http://www.w3.org/2000/svg" xmlns:xlink="http://www.w3.org/1999/xlink" x="0px" y="0px"
	 width="325px" height="325px" viewBox="0 0 325 325" enable-background="new 0 0 325 325" xml:space="preserve">
<g>
	<path fill="#159763" d="M37.737,325c23.305-23.219,37.737-55.337,37.737-90.834c0-35.495-14.432-67.614-37.737-90.833V325z"/>
	<path fill="#007A5A" d="M37.737,143.333C14.432,166.552,0,198.671,0,234.166C0,269.663,14.432,301.781,37.737,325V143.333z"/>
	<path fill="#159763" d="M240.863,240.862c0.061-32.897-12.445-65.813-37.545-90.913c-25.1-25.1-58.016-37.606-90.913-37.544
		L240.863,240.862z"/>
	<path fill="#007A5A" d="M112.405,112.405c-0.062,32.897,12.445,65.813,37.544,90.913c25.099,25.1,58.016,37.605,90.914,37.544
		L112.405,112.405z"/>
	<path fill="#159763" d="M325,37.737C301.781,14.432,269.663,0,234.167,0c-35.497,0-67.615,14.432-90.833,37.737H325z"/>
	<path fill="#007A5A" d="M143.333,37.737c23.218,23.305,55.336,37.736,90.833,37.736c35.496,0,67.614-14.432,90.833-37.736H143.333z
		"/>
</g>
</svg>
