<?xml version="1.0" encoding="utf-8"?>
<!-- Generator: Adobe Illustrator 16.0.4, SVG Export Plug-In . SVG Version: 6.00 Build 0)  -->
<!DOCTYPE svg PUBLIC "-//W3C//DTD SVG 1.1//EN" "http://www.w3.org/Graphics/SVG/1.1/DTD/svg11.dtd">
<svg version="1.1" id="Layer_1" xmlns="http://www.w3.org/2000/svg" xmlns:xlink="http://www.w3.org/1999/xlink" x="0px" y="0px"
	 width="325px" height="574.527px" viewBox="0 0 325 574.527" enable-background="new 0 0 325 574.527" xml:space="preserve">
<g>
	<path fill="#159763" d="M37.736,574.527c23.306-23.218,37.736-55.337,37.736-90.833s-14.432-67.615-37.736-90.833V574.527z"/>
	<path fill="#007A5A" d="M37.736,392.86C14.432,416.078,0,448.197,0,483.694s14.432,67.615,37.736,90.833V392.86z"/>
	<path fill="#159763" d="M240.862,490.388c0.062-32.896-12.444-65.812-37.545-90.912c-25.1-25.1-58.015-37.606-90.913-37.545
		L240.862,490.388z"/>
	<path fill="#007A5A" d="M112.404,361.931c-0.062,32.897,12.445,65.813,37.545,90.914c25.1,25.1,58.017,37.605,90.913,37.543
		L112.404,361.931z"/>
	<path fill="#007A5A" d="M143.334,287.264c23.218,23.305,55.337,37.738,90.833,37.738s67.615-14.433,90.833-37.738H143.334z"/>
	<path fill="#00AF66" d="M325,287.264c-23.218-23.305-55.337-37.736-90.833-37.736s-67.615,14.432-90.833,37.735L325,287.264
		L325,287.264z"/>
	<path fill="#007A5A" d="M37.736,0c23.306,23.219,37.736,55.338,37.736,90.834s-14.432,67.615-37.736,90.832V0z"/>
	<path fill="#00AF66" d="M37.736,181.666C14.432,158.449,0,126.33,0,90.834S14.432,23.219,37.736,0V181.666z"/>
	<path fill="#007A5A" d="M240.862,84.139c0.062,32.896-12.444,65.812-37.545,90.912c-25.1,25.1-58.015,37.605-90.913,37.545
		L240.862,84.139z"/>
	<path fill="#00AF66" d="M112.404,212.596c-0.062-32.896,12.445-65.812,37.545-90.912c25.1-25.102,58.017-37.607,90.913-37.545
		L112.404,212.596z"/>
</g>
</svg>
