<?xml version="1.0" encoding="utf-8"?>
<!-- Generator: Adobe Illustrator 16.0.4, SVG Export Plug-In . SVG Version: 6.00 Build 0)  -->
<!DOCTYPE svg PUBLIC "-//W3C//DTD SVG 1.1//EN" "http://www.w3.org/Graphics/SVG/1.1/DTD/svg11.dtd">
<svg version="1.1" id="Layer_1" xmlns="http://www.w3.org/2000/svg" xmlns:xlink="http://www.w3.org/1999/xlink" x="0px" y="0px"
	 width="325px" height="574.526px" viewBox="0 0 325 574.526" enable-background="new 0 0 325 574.526" xml:space="preserve">
<g>
	<path fill="#159763" d="M287.264,0c-23.306,23.218-37.737,55.337-37.737,90.833s14.432,67.615,37.737,90.833V0z"/>
	<path fill="#007A5A" d="M287.264,181.667C310.568,158.449,325,126.33,325,90.833S310.568,23.218,287.264,0V181.667z"/>
	<path fill="#159763" d="M84.137,84.138c-0.062,32.897,12.445,65.813,37.545,90.913s58.015,37.606,90.913,37.545L84.137,84.138z"/>
	<path fill="#007A5A" d="M212.595,212.595c0.062-32.897-12.444-65.813-37.544-90.913c-25.1-25.1-58.017-37.606-90.914-37.544
		L212.595,212.595z"/>
	<path fill="#007A5A" d="M181.666,287.263c-23.218-23.305-55.337-37.737-90.833-37.737S23.218,263.958,0,287.263H181.666z"/>
	<path fill="#00AF66" d="M0,287.263C23.218,310.568,55.337,325,90.833,325s67.615-14.432,90.833-37.736H0z"/>
	<path fill="#007A5A" d="M287.264,574.526c-23.306-23.218-37.737-55.337-37.737-90.833s14.432-67.615,37.737-90.833V574.526z"/>
	<path fill="#00AF66" d="M287.264,392.86C310.568,416.078,325,448.197,325,483.693s-14.432,67.615-37.736,90.833V392.86z"/>
	<path fill="#007A5A" d="M84.137,490.388c-0.062-32.896,12.445-65.812,37.545-90.912s58.015-37.606,90.913-37.545L84.137,490.388z"
		/>
	<path fill="#00AF66" d="M212.595,361.931c0.062,32.897-12.444,65.813-37.544,90.913c-25.1,25.1-58.017,37.606-90.914,37.544
		L212.595,361.931z"/>
</g>
</svg>
